<svg width="26" height="26" viewBox="0 0 26 26" fill="none" xmlns="http://www.w3.org/2000/svg">
<path d="M22.6195 0.292969C22.867 0.292969 23.1145 0.29309 23.362 0.416852C23.9809 0.664377 24.3521 1.28283 24.3521 1.90164C24.3521 2.39669 24.1046 2.89174 23.7333 3.13926L12.966 12.4214L2.19869 3.13926C1.8274 2.76797 1.57988 2.39669 1.57988 1.90164C1.57988 1.28283 1.95117 0.664377 2.56998 0.416852C2.81751 0.29309 3.06502 0.292969 3.31255 0.292969C3.68383 0.292969 4.05513 0.416489 4.42642 0.664014L12.966 8.08976L21.5056 0.664014C21.7531 0.416489 22.2482 0.292969 22.6195 0.292969Z" fill="#FF1A1A"/>
<path d="M22.6195 13.04C22.867 13.04 23.1145 13.0402 23.362 13.1639C23.9809 13.4114 24.3521 14.0305 24.3521 14.6493C24.3521 15.1444 24.1046 15.6394 23.7333 15.8869L12.966 25.1691L2.19869 15.8869C1.8274 15.5156 1.57988 15.1444 1.57988 14.6493C1.57988 14.0305 1.95117 13.4114 2.56998 13.1639C2.81751 13.0402 3.06502 13.04 3.31255 13.04C3.68383 13.04 4.05513 13.1642 4.42642 13.4117L12.966 20.8374L21.5056 13.4117C21.7531 13.1642 22.2482 13.04 22.6195 13.04Z" fill="#FF1A1A"/>
</svg>
