<svg width="26" height="26" viewBox="0 0 26 26" fill="none" xmlns="http://www.w3.org/2000/svg">
<path d="M3.31255 25.8526C3.06502 25.8526 2.81751 25.8531 2.56998 25.7293C1.95117 25.4818 1.57988 24.8627 1.57988 24.2439C1.57988 23.7489 1.8274 23.2538 2.19869 23.0063L12.966 13.7241L23.7333 23.0063C24.1046 23.3776 24.3521 23.7489 24.3521 24.2439C24.3521 24.8627 23.9809 25.4818 23.362 25.7293C23.1145 25.8531 22.867 25.8526 22.6195 25.8526C22.2482 25.8526 21.8769 25.7291 21.5056 25.4815L12.966 18.0558L4.42642 25.4815C4.17889 25.6053 3.68383 25.8526 3.31255 25.8526Z" fill="#FF1A1A"/>
<path d="M3.31255 13.1055C3.06502 13.1055 2.81751 13.1054 2.56998 12.9816C1.95117 12.7341 1.57988 12.1157 1.57988 11.4969C1.57988 11.0018 1.8274 10.5068 2.19869 10.2592L12.966 0.977051L23.7333 10.2592C24.1046 10.6305 24.3521 11.0018 24.3521 11.4969C24.3521 12.1157 23.9809 12.7341 23.362 12.9816C23.1145 13.1054 22.867 13.1055 22.6195 13.1055C22.2482 13.1055 21.8769 12.982 21.5056 12.7345L12.966 5.30873L4.42642 12.7345C4.17889 12.8582 3.68383 13.1055 3.31255 13.1055Z" fill="#FF1A1A"/>
</svg>
