<svg width="16" height="17" viewBox="0 0 16 17" fill="none" xmlns="http://www.w3.org/2000/svg">
<path d="M14.4 11.7005L12.0889 10.5449C11.4667 10.2783 10.7556 10.3672 10.4 10.9005L9.51111 12.0561C8.44444 11.4338 7.46667 10.6338 6.57778 9.65606C5.68889 8.76717 4.97778 7.78939 4.62222 6.63384L6.13333 5.74495C6.66667 5.47828 6.93333 4.76717 6.66667 4.14495L5.6 2.01161C5.24444 1.47828 4.62222 1.21161 4.08889 1.56717C2.93333 2.1005 1.33333 3.16717 1.06667 4.23383C0.799999 7.07828 1.77778 9.83384 3.64444 11.8783C5.6 14.0116 8.44444 15.3449 11.3778 15.5227C12.7111 15.5227 14.0444 14.0116 14.7556 13.0338C15.0222 12.5894 14.9333 11.9672 14.5778 11.7005C14.5778 11.7005 14.4889 11.7005 14.4 11.7005Z" fill="white"/>
</svg>
