<svg width="51" height="51" viewBox="0 0 51 51" fill="none" xmlns="http://www.w3.org/2000/svg">
<path fill-rule="evenodd" clip-rule="evenodd" d="M18.2061 28.3617L13.7657 36.3274C13.69 36.4633 13.7071 36.6243 13.8098 36.7412C13.9125 36.858 14.07 36.8958 14.2145 36.8382L37.9523 27.3752C38.0924 27.3195 38.1795 27.1909 38.1795 27.0401C38.1795 26.8894 38.0923 26.7608 37.9523 26.7049L14.2145 17.2419C14.07 17.1843 13.9125 17.2221 13.8098 17.3389C13.7072 17.4558 13.69 17.6169 13.7657 17.7528L18.2061 25.7184L29.4467 26.9113C29.5335 26.9205 29.5969 26.9749 29.5969 27.0401C29.5969 27.1053 29.5335 27.1597 29.4467 27.1689L18.2061 28.3617Z" fill="white"/>
</svg>
